<svg width="1080" height="300" viewBox="0 0 1080 300" fill="none" xmlns="http://www.w3.org/2000/svg">
<path d="M10.45 164.42C10.45 156.64 11.71 149.35 14.23 142.56C16.75 135.77 20.22 129.82 24.65 124.71C29.07 119.6 34.41 115.59 40.67 112.69C46.93 109.79 53.72 108.34 61.04 108.34C68.97 108.34 76.07 110.25 82.33 114.06C88.59 117.88 93.85 122.99 98.12 129.4H98.58V111.55H119.18V218.67H98.58V201.96H98.12C94 208.06 88.85 212.99 82.67 216.72C76.49 220.46 69.51 222.33 61.73 222.33C53.95 222.33 46.39 220.76 39.98 217.64C33.57 214.52 28.19 210.28 23.84 204.94C19.49 199.6 16.17 193.46 13.88 186.51C11.59 179.57 10.44 172.2 10.44 164.42H10.45ZM31.05 165.11C31.05 170.3 31.81 175.22 33.34 179.87C34.86 184.53 37.12 188.65 40.09 192.23C43.07 195.82 46.65 198.68 50.85 200.81C55.05 202.95 59.74 204.01 64.93 204.01C70.12 204.01 75.12 203.02 79.47 201.03C83.82 199.05 87.48 196.34 90.46 192.9C93.44 189.47 95.73 185.35 97.33 180.54C98.93 175.73 99.73 170.58 99.73 165.09C99.73 159.6 98.93 154.49 97.33 149.75C95.73 145.02 93.4 140.94 90.35 137.5C87.29 134.07 83.6 131.4 79.25 129.49C74.9 127.58 70.06 126.63 64.72 126.63C59.84 126.63 55.34 127.62 51.22 129.61C47.1 131.6 43.55 134.34 40.58 137.85C37.6 141.36 35.28 145.44 33.6 150.1C31.92 154.76 31.08 159.75 31.08 165.09L31.05 165.11Z" fill="#0066FF"/>
<path d="M166.56 111.54V125.96H167.02C170.38 120.16 174.95 115.77 180.75 112.8C186.55 109.82 192.73 108.34 199.29 108.34C212.26 108.34 221.84 112.08 228.02 119.56C234.2 127.04 237.29 138.41 237.29 153.67V218.68H216.69V156.19C216.69 145.36 215.01 137.73 211.65 133.3C208.29 128.88 202.11 126.66 193.11 126.66C187.77 126.66 183.38 127.54 179.95 129.29C176.52 131.05 173.81 133.6 171.82 136.96C169.83 140.32 168.46 144.44 167.7 149.32C166.93 154.21 166.55 159.78 166.55 166.03V218.68H145.95V111.54H166.55H166.56Z" fill="#0066FF"/>
<path d="M257.2 164.42C257.2 156.49 258.46 149.12 260.98 142.33C263.5 135.54 267 129.63 271.51 124.59C276.01 119.55 281.35 115.59 287.53 112.69C293.71 109.79 300.38 108.34 307.56 108.34C315.8 108.34 323.09 110.33 329.42 114.29C335.75 118.26 340.9 123.45 344.87 129.86H345.33V111.55H365.93V217.99C365.93 238.74 361.81 254.27 353.57 264.57C345.33 274.87 332.05 280.02 313.74 280.02C306.11 280.02 299.13 278.88 292.8 276.59C286.47 274.3 281.05 271.06 276.55 266.86C272.05 262.66 268.54 257.59 266.02 251.64C263.5 245.69 262.16 238.97 262.01 231.5H282.61C282.61 241.11 285.55 248.55 291.42 253.82C297.29 259.08 305.04 261.71 314.65 261.71C325.64 261.71 333.5 258.58 338.23 252.33C342.96 246.07 345.33 236.46 345.33 223.49V201.97H344.87C340.75 208.07 335.6 213 329.42 216.73C323.24 220.47 316.26 222.34 308.48 222.34C300.7 222.34 293.87 220.89 287.54 217.99C281.21 215.09 275.79 211.05 271.29 205.86C266.79 200.67 263.32 194.57 260.87 187.55C258.43 180.53 257.21 172.83 257.21 164.43L257.2 164.42ZM311.68 204.02C317.02 204.02 321.87 203.03 326.21 201.04C330.56 199.06 334.22 196.35 337.2 192.91C340.18 189.48 342.46 185.36 344.07 180.55C345.67 175.74 346.47 170.59 346.47 165.1C346.47 159.61 345.63 154.27 343.95 149.53C342.27 144.8 339.87 140.76 336.74 137.4C333.61 134.04 329.91 131.41 325.64 129.5C321.37 127.59 316.63 126.64 311.45 126.64C306.56 126.64 302.07 127.63 297.95 129.62C293.83 131.61 290.28 134.35 287.31 137.86C284.33 141.37 282.01 145.45 280.33 150.11C278.65 154.77 277.81 159.76 277.81 165.1C277.81 170.44 278.57 175.21 280.1 179.86C281.62 184.52 283.88 188.64 286.85 192.22C289.83 195.81 293.41 198.67 297.61 200.8C301.81 202.94 306.5 204 311.69 204L311.68 204.02Z" fill="#0066FF"/>
<path d="M384.47 166.02C384.47 157.32 385.65 149.42 388.02 142.33C390.38 135.23 393.78 129.17 398.21 124.13C402.63 119.1 408.09 115.2 414.57 112.46C421.05 109.71 428.42 108.34 436.66 108.34C452.22 108.34 464.47 113.38 473.4 123.45C482.33 133.52 486.79 147.94 486.79 166.71V168.54H405.08C405.23 173.73 406.15 178.5 407.82 182.85C409.5 187.2 411.79 190.94 414.69 194.07C417.59 197.2 420.99 199.64 424.88 201.39C428.77 203.15 432.93 204.02 437.36 204.02C445.29 204.02 451.63 202.15 456.36 198.41C461.09 194.67 465.44 189.6 469.41 183.19L486.81 193.03C481.77 202.34 474.87 209.55 466.09 214.66C457.31 219.77 447.66 222.33 437.14 222.33C429.51 222.33 422.49 220.99 416.08 218.32C409.67 215.65 404.1 211.88 399.37 206.99C394.64 202.11 390.98 196.2 388.38 189.25C385.78 182.31 384.49 174.57 384.49 166.02H384.47ZM406.22 152.97H466.19C464.97 144.73 461.8 138.21 456.69 133.4C451.58 128.59 444.82 126.19 436.43 126.19C428.5 126.19 421.78 128.71 416.29 133.74C410.8 138.78 407.44 145.19 406.22 152.97Z" fill="#0066FF"/>
<path d="M505.32 218.67V19.99H525.92V218.67H505.32Z" fill="#0066FF"/>
<path d="M699.65 164.42C699.65 156.64 700.91 149.35 703.43 142.56C705.95 135.77 709.42 129.82 713.85 124.71C718.27 119.6 723.61 115.59 729.87 112.69C736.13 109.79 742.92 108.34 750.24 108.34C758.17 108.34 765.27 110.25 771.53 114.06C777.79 117.88 783.05 122.99 787.32 129.4H787.78V111.55H808.38V218.67H787.78V201.96H787.32C783.2 208.06 778.05 212.99 771.87 216.72C765.69 220.46 758.71 222.33 750.93 222.33C743.15 222.33 735.59 220.76 729.18 217.64C722.77 214.52 717.39 210.28 713.04 204.94C708.69 199.6 705.37 193.46 703.08 186.51C700.79 179.57 699.64 172.2 699.64 164.42H699.65ZM720.25 165.11C720.25 170.3 721.01 175.22 722.54 179.87C724.06 184.53 726.32 188.65 729.29 192.23C732.27 195.82 735.85 198.68 740.05 200.81C744.25 202.95 748.94 204.01 754.13 204.01C759.32 204.01 764.31 203.02 768.66 201.03C773.01 199.05 776.67 196.34 779.65 192.9C782.63 189.47 784.92 185.35 786.52 180.54C788.12 175.73 788.92 170.58 788.92 165.09C788.92 159.6 788.12 154.49 786.52 149.75C784.92 145.02 782.59 140.94 779.54 137.5C776.48 134.07 772.79 131.4 768.44 129.49C764.09 127.58 759.24 126.63 753.9 126.63C749.02 126.63 744.52 127.62 740.4 129.61C736.28 131.6 732.73 134.34 729.75 137.85C726.77 141.36 724.45 145.44 722.77 150.1C721.09 154.76 720.25 159.75 720.25 165.09V165.11Z" fill="#0066FF"/>
<path d="M854.16 111.54V129.39H854.62C858.89 122.98 864.12 117.87 870.3 114.05C876.48 110.24 883.69 108.33 891.93 108.33C899.1 108.33 905.74 109.74 911.84 112.56C917.94 115.39 923.25 119.28 927.75 124.23C932.25 129.19 935.8 135.1 938.39 141.97C940.98 148.84 942.28 156.32 942.28 164.4C942.28 172.48 941.06 180.5 938.62 187.52C936.18 194.54 932.71 200.65 928.21 205.83C923.71 211.02 918.33 215.06 912.07 217.96C905.81 220.86 898.79 222.31 891.01 222.31C883.23 222.31 876.25 220.44 870.07 216.7C863.89 212.96 858.74 208.04 854.62 201.94H854.16V279.99H833.56V111.54H854.16ZM853.01 165.1C853.01 170.44 853.77 175.48 855.3 180.21C856.82 184.94 859.08 189.06 862.05 192.57C865.03 196.08 868.61 198.86 872.81 200.92C877.01 202.98 881.7 204.01 886.89 204.01C892.08 204.01 897.08 203.02 901.42 201.03C905.77 199.05 909.43 196.34 912.41 192.9C915.39 189.47 917.67 185.35 919.28 180.54C920.88 175.73 921.68 170.58 921.68 165.09C921.68 159.6 920.84 154.26 919.16 149.52C917.48 144.79 915.08 140.75 911.95 137.39C908.82 134.03 905.12 131.4 900.85 129.49C896.58 127.58 891.84 126.63 886.66 126.63C881.77 126.63 877.28 127.62 873.16 129.61C869.04 131.6 865.49 134.34 862.52 137.85C859.54 141.36 857.22 145.44 855.54 150.1C853.86 154.76 853.02 159.75 853.02 165.09L853.01 165.1Z" fill="#0066FF"/>
<path d="M981.42 111.54V129.39H981.88C986.15 122.98 991.38 117.87 997.56 114.05C1003.74 110.24 1010.95 108.33 1019.19 108.33C1026.36 108.33 1033 109.74 1039.1 112.56C1045.2 115.39 1050.51 119.28 1055.01 124.23C1059.51 129.19 1063.06 135.1 1065.65 141.97C1068.24 148.84 1069.54 156.32 1069.54 164.4C1069.54 172.48 1068.32 180.5 1065.88 187.52C1063.44 194.54 1059.97 200.65 1055.47 205.83C1050.97 211.02 1045.59 215.06 1039.33 217.96C1033.07 220.86 1026.05 222.31 1018.27 222.31C1010.49 222.31 1003.51 220.44 997.33 216.7C991.15 212.96 986 208.04 981.88 201.94H981.42V279.99H960.82V111.54H981.42ZM980.27 165.1C980.27 170.44 981.03 175.48 982.56 180.21C984.08 184.94 986.34 189.06 989.31 192.57C992.29 196.08 995.87 198.86 1000.07 200.92C1004.27 202.98 1008.96 204.01 1014.15 204.01C1019.34 204.01 1024.34 203.02 1028.68 201.03C1033.03 199.05 1036.69 196.34 1039.67 192.9C1042.65 189.47 1044.93 185.35 1046.54 180.54C1048.14 175.73 1048.94 170.58 1048.94 165.09C1048.94 159.6 1048.1 154.26 1046.42 149.52C1044.74 144.79 1042.34 140.75 1039.21 137.39C1036.08 134.03 1032.38 131.4 1028.11 129.49C1023.84 127.58 1019.1 126.63 1013.92 126.63C1009.03 126.63 1004.54 127.62 1000.42 129.61C996.3 131.6 992.75 134.34 989.78 137.85C986.8 141.36 984.48 145.44 982.8 150.1C981.12 154.76 980.28 159.75 980.28 165.09L980.27 165.1Z" fill="#0066FF"/>
<path d="M590.93 117.37L568.73 139.57H631.18L568.73 182.59H592.32L545.14 218.67L631.18 177.04L614.52 175.65L692.24 117.37H590.93Z" fill="#F27021"/>
<path d="M607.41 196.64L564.83 218.67H652.77L678.79 196.64H607.41Z" fill="#F27021"/>
<path d="M321.59 93.16C330.41 90.66 362.14 83.91 357.36 71.36C350.77 62.36 324.11 60.65 313.04 60.45C304.88 60.26 296.75 60.87 288.86 62.5C281.26 64.13 261.15 68.65 270.74 79.44C273.23 82.05 276.83 83.99 280.57 85.59C288.11 88.92 296.21 91.15 304.41 93.15C295.96 92.89 287.5 91.68 279.23 89.25C270.49 87.02 258.3 79.39 263.42 68.6C270.36 55.24 299.66 52.31 313.15 52.51C328.37 53.19 344.39 54.5 357.7 62.7C365.38 67.68 365.9 77.45 358.82 83.21C347.98 91.19 334.34 92.22 321.59 93.15V93.16Z" fill="#F27021"/>
</svg>
